<?xml version="1.0" standalone="no"?>
<!DOCTYPE svg PUBLIC "-//W3C//DTD SVG 20010904//EN"
 "http://www.w3.org/TR/2001/REC-SVG-20010904/DTD/svg10.dtd">
<svg version="1.0" xmlns="http://www.w3.org/2000/svg"
 width="48.000000pt" height="48.000000pt" viewBox="0 0 48.000000 48.000000"
 preserveAspectRatio="xMidYMid meet">
<metadata>
Created by potrace 1.16, written by Peter Selinger 2001-2019
</metadata>
<g transform="translate(0.000000,48.000000) scale(0.100000,-0.100000)"
fill="#000000" stroke="none">
<path d="M0 446 c0 -19 6 -37 13 -39 9 -4 9 -6 0 -6 -9 -1 -12 -54 -13 -201
l0 -200 240 0 240 0 0 240 -1 240 -239 0 -240 0 0 -34z m285 -33 c27 -15 71
-32 99 -38 l51 -12 -3 -44 c-4 -46 -42 -141 -68 -171 -9 -9 -13 -21 -10 -27 3
-5 -7 -23 -24 -39 -23 -24 -30 -27 -31 -14 -1 14 -2 14 -6 -1 -4 -16 -12 -18
-66 -13 -34 3 -75 6 -90 6 -15 1 -25 5 -22 11 4 5 10 7 15 4 5 -3 11 -1 14 4
3 5 -1 12 -10 15 -10 4 -13 13 -9 25 3 11 1 22 -5 26 -6 3 -22 29 -36 57 -19
38 -22 49 -10 45 11 -4 13 -1 9 10 -3 8 0 19 8 24 9 6 10 9 2 9 -7 0 -16 -8
-22 -17 -8 -16 -10 -15 -15 7 -18 78 -16 81 50 99 49 14 88 32 130 60 1 1 23
-11 49 -26z"/>
</g>
</svg>
